#!OML:ASF E:/inclinewalkrobotboard/Project1/Captureday1/Session1/subject1.ASF
:FULLY-SPECIFIED
:DEGREES
26
root 0 0 0 -0.48952523179295326 -3.272156841962964 -2.750272582711518
lowerback 9.202829301103343 0.40783608050207365 0.7089335199999378
upperback -0.17417956780000488 0.7582940989541171 1.713637381504201
thorax -5.233526494045039 0.39218939100818345 1.320807508704835
lowerneck -16.420652833638893 -2.8713981553451893 -1.8598629448226522
upperneck 19.87212939917755 -3.6959993954013886 0.7508109294157221
head 9.038743757257604 -1.778853586951465 0.09529205160545695
rclavicle -6.615207267083039E-16 -4.738457141904537E-16
rhumerus -23.8806546033221 -18.85428802427332 -75.02349778073852
rradius 27.03197562656911
rwrist 6.416926303659132
rhand -15.868104175020392 21.016005955357347
rfingers 7.125020000000035
rthumb 10.304986980085966 -8.468867665810174
lclavicle -6.678910288859638E-16 -3.2065029759651037E-16
lhumerus -29.740661131900616 1.4308771643252518 78.08466822855475
lradius 28.714982105994526
lwrist 3.1637325941459036
lhand -23.880717590610242 23.340139059814557
lfingers 7.125020000000041
lthumb 2.534003233853454 53.02445316122089
rfemur -3.6796070686200864 -6.851168222853431 15.186871956848336
rtibia 39.306292972416635
rfoot -8.737261379758024 -8.010942317029784
rtoes 6.20059549493109
lfemur -13.339867872634642 -0.7852362971649232 -20.578705346724874
ltibia 33.9468216258578
lfoot -8.935492104095564 -0.8589237441013964
ltoes -2.366507161246025
27
root 0 0 0 -0.5218607110443578 -3.226986390297867 -2.7261231319021677
lowerback 9.211945784806343 0.402280654633124 0.703271168019028
upperback -0.16583198546780764 0.7510688106489811 1.7168221153227265
thorax -5.2303934794200595 0.38862922691303353 1.3261054271798054
lowerneck -16.421365425785623 -2.8797473310988133 -1.8665797010802327
upperneck 19.87643621719067 -3.704955748364425 0.7467396660685965
head 9.040710940423743 -1.7848431915275709 0.09418901672048141
rclavicle -6.60412246176181E-16 -4.751971193929882E-16
rhumerus -23.785372922822532 -18.86424789783916 -74.9618606717948
rradius 27.034770649572824
rwrist 6.460699579325482
rhand -15.827084662991252 20.982284655235567
rfingers 7.125020000000034
rthumb 10.344253463361328 -8.49763610859307
lclavicle -6.659247345592789E-16 -3.218728198482566E-16
lhumerus -29.701123373729253 1.43810842434117 78.02954196144898
lradius 28.726210765598506
lwrist 3.13889121236196
lhand -23.839811194699266 23.33956698676106
lfingers 7.12502000000004
lthumb 2.5740818643129693 53.01935377893982
rfemur -3.452972394070983 -7.123330546447335 14.924401830316683
rtibia 39.30685300580843
rfoot -8.771025354042285 -8.04660556703027
rtoes 6.249360642351711
lfemur -13.460360750689503 -0.7492647917639896 -20.606315658228226
ltibia 33.99424696308911
lfoot -8.97174417197484 -0.8010504557830878
ltoes -2.3215030509518346
28
root 0 0 0 -0.7817095730722876 -3.0568247795842733 -2.6423201125828903
lowerback 9.33421237623611 0.39028582576487114 0.7120943665334702
upperback -0.08042576943005386 0.7370543308915407 1.716290402080217
thorax -5.208833547125778 0.38087556919677173 1.316840414609067
lowerneck -16.467302723064158 -2.9149624553867435 -1.8908234345366655
upperneck 19.85108914669241 -3.742935070863172 0.7186043389669425
head 9.038267964322673 -1.8068177526357863 0.08566677577691484
rclavicle -6.617943380798259E-16 -4.766071120948549E-16
rhumerus -23.978646346222398 -18.845024073815704 -75.08356970167368
rradius 27.031732582169834
rwrist 6.3667381393098665
rhand -15.91112844952387 21.05106400352424
rfingers 7.125020000000036
rthumb 10.26332417853508 -8.438659609878892
lclavicle -6.691936638705621E-16 -3.1494357334433113E-16
lhumerus -29.82367770432461 1.4092814068524584 78.23456496083139
lradius 28.695522489194516
lwrist 3.2356112710120257
lhand -23.982921796147085 23.33319546551265
lfingers 7.125020000000042
lthumb 2.436229493295155 53.02888972382329
rfemur -3.8837915518849258 -6.595273539867662 15.441290303774053
rtibia 39.26890291048928
rfoot -8.718189520653773 -7.978771577391216
rtoes 6.144981939523735
lfemur -13.279994183449283 -0.7995702731454255 -20.56671955876003
ltibia 33.93668806219051
lfoot -8.905904210316098 -0.889616020868079
ltoes -2.393729399335781
29
root 0 0 0 -0.7637408231509042 -3.0431909694170347 -2.6336615717796157
lowerback 9.31907753576542 0.3867638105052942 0.7041427487979428
upperback -0.08890401761049382 0.7320700766686655 1.719677932590883
thorax -5.209952647625047 0.3786149663616523 1.3245301533835097
lowerneck -16.458643143837875 -2.9167116696857036 -1.8930683768754117
upperneck 19.86104417646135 -3.7452040616679825 0.7200249317155816
head 9.040784813946427 -1.8088450856230525 0.08621143615454752
rclavicle -6.619112241998082E-16 -4.775133726035213E-16
rhumerus -23.90871323668315 -18.85332999190417 -75.03157833107765
rradius 27.033915630585522
rwrist 6.401742507956264
rhand -15.879143325117335 21.02498327390802
rfingers 7.125020000000035
rthumb 10.294809960442784 -8.461616997402995
lclavicle -6.669740207611092E-16 -3.1705990194120257E-16
lhumerus -29.78336071463 1.415405031957044 78.17744194051079
lradius 28.707909017613332
lwrist 3.212365656893219
lhand -23.938743132516628 23.332065763124916
lfingers 7.125020000000041
lthumb 2.4789225894574898 53.02315801135792
rfemur -3.6472747380499158 -6.879079733377267 15.17113990681186
rtibia 39.26382914704593
rfoot -8.754778058166284 -8.016562205768253
rtoes 6.194696108912815
lfemur -13.387329500671441 -0.7683646356323717 -20.591026099888243
ltibia 33.977971610159166
lfoot -8.937683902793163 -0.8374466434266132
ltoes -2.3526890420523063
